<?xml version="1.0" encoding="UTF-8" standalone="no"?> <svg width="64" height="64" viewBox="0 0 64 64" fill="none" xmlns="http://www.w3.org/2000/svg">
<path d="M29.73 29.08H52C52.3978 29.08 52.7793 28.9219 53.0606 28.6406C53.3419 28.3593 53.5 27.9778 53.5 27.58C53.5 27.1821 53.3419 26.8006 53.0606 26.5193C52.7793 26.238 52.3978 26.08 52 26.08H29.73C29.3322 26.08 28.9506 26.238 28.6693 26.5193C28.388 26.8006 28.23 27.1821 28.23 27.58C28.23 27.9778 28.388 28.3593 28.6693 28.6406C28.9506 28.9219 29.3322 29.08 29.73 29.08V29.08Z" fill="black"/>
<path d="M14.75 31.82C15.8402 31.767 16.8682 31.2967 17.6211 30.5064C18.3739 29.7161 18.7939 28.6664 18.7939 27.575C18.7939 26.4835 18.3739 25.4338 17.6211 24.6435C16.8682 23.8532 15.8402 23.3829 14.75 23.33C13.6598 23.3829 12.6317 23.8532 11.8788 24.6435C11.126 25.4338 10.7061 26.4835 10.7061 27.575C10.7061 28.6664 11.126 29.7161 11.8788 30.5064C12.6317 31.2967 13.6598 31.767 14.75 31.82ZM14.75 26.33C15.0609 26.3579 15.3501 26.5011 15.5608 26.7315C15.7715 26.9619 15.8883 27.2628 15.8883 27.575C15.8883 27.8871 15.7715 28.188 15.5608 28.4184C15.3501 28.6488 15.0609 28.7921 14.75 28.82C14.439 28.7921 14.1498 28.6488 13.9391 28.4184C13.7285 28.188 13.6117 27.8871 13.6117 27.575C13.6117 27.2628 13.7285 26.9619 13.9391 26.7315C14.1498 26.5011 14.439 26.3579 14.75 26.33V26.33Z" fill="black"/>
<path d="M61.5 13.79V9.93C61.5 8.95428 61.3078 7.98811 60.9344 7.08666C60.561 6.18521 60.0137 5.36614 59.3238 4.6762C58.6339 3.98626 57.8148 3.43897 56.9133 3.06558C56.0119 2.69218 55.0457 2.5 54.07 2.5H9.93C7.95944 2.5 6.06959 3.2828 4.6762 4.6762C3.2828 6.06959 2.5 7.95944 2.5 9.93V13.79C2.50465 14.9436 2.77822 16.0803 3.29899 17.1096C3.81977 18.139 4.57338 19.0328 5.5 19.72C4.57281 20.4066 3.81877 21.3003 3.29794 22.3298C2.7771 23.3593 2.50387 24.4962 2.5 25.65V29.51C2.50265 31.4797 3.2863 33.3681 4.67912 34.7609C6.07194 36.1537 7.96025 36.9374 9.93 36.94H21V46.68H17.88C16.13 40.89 7.57 42.08 7.5 48.18C7.43 54.28 16.13 55.47 17.88 49.68H22.49C22.8878 49.68 23.2694 49.522 23.5507 49.2407C23.832 48.9594 23.99 48.5778 23.99 48.18V36.94H30.5V51.12C24.71 52.87 25.9 61.43 32 61.5C38.1 61.57 39.29 52.87 33.5 51.12V36.94H40V48.18C40 48.5778 40.158 48.9594 40.4393 49.2407C40.7206 49.522 41.1022 49.68 41.5 49.68H46.11C47.86 55.48 56.42 54.29 56.49 48.18C56.56 42.07 47.86 40.89 46.11 46.68H43V36.94H54.07C56.0397 36.9374 57.9281 36.1537 59.3209 34.7609C60.7137 33.3681 61.4974 31.4797 61.5 29.51V25.65C61.4961 24.4962 61.2229 23.3593 60.7021 22.3298C60.1812 21.3003 59.4272 20.4066 58.5 19.72C59.4266 19.0328 60.1802 18.139 60.701 17.1096C61.2218 16.0803 61.4953 14.9436 61.5 13.79V13.79ZM12.81 50.49C12.1974 50.49 11.6098 50.2466 11.1766 49.8134C10.7434 49.3802 10.5 48.7927 10.5 48.18C10.5 47.5674 10.7434 46.9798 11.1766 46.5466C11.6098 46.1134 12.1974 45.87 12.81 45.87C13.4227 45.87 14.0102 46.1134 14.4434 46.5466C14.8766 46.9798 15.12 47.5674 15.12 48.18C15.12 48.7927 14.8766 49.3802 14.4434 49.8134C14.0102 50.2466 13.4227 50.49 12.81 50.49V50.49ZM34.31 56.19C34.31 56.8026 34.0666 57.3902 33.6334 57.8234C33.2002 58.2566 32.6127 58.5 32 58.5C31.3873 58.5 30.7998 58.2566 30.3666 57.8234C29.9334 57.3902 29.69 56.8026 29.69 56.19C29.69 55.5773 29.9334 54.9898 30.3666 54.5566C30.7998 54.1234 31.3873 53.88 32 53.88C32.6127 53.88 33.2002 54.1234 33.6334 54.5566C34.0666 54.9898 34.31 55.5773 34.31 56.19V56.19ZM51.19 45.87C51.8026 45.87 52.3902 46.1134 52.8234 46.5466C53.2566 46.9798 53.5 47.5674 53.5 48.18C53.5 48.7927 53.2566 49.3802 52.8234 49.8134C52.3902 50.2466 51.8026 50.49 51.19 50.49C50.5773 50.49 49.9898 50.2466 49.5566 49.8134C49.1234 49.3802 48.88 48.7927 48.88 48.18C48.88 47.5674 49.1234 46.9798 49.5566 46.5466C49.9898 46.1134 50.5773 45.87 51.19 45.87ZM58.5 25.65V29.51C58.4974 30.6841 58.0298 31.8094 57.1996 32.6396C56.3694 33.4698 55.2441 33.9374 54.07 33.94H9.93C8.7559 33.9374 7.63065 33.4698 6.80043 32.6396C5.97022 31.8094 5.50264 30.6841 5.5 29.51V25.65C5.50264 24.4759 5.97022 23.3506 6.80043 22.5204C7.63065 21.6902 8.7559 21.2226 9.93 21.22H54.07C55.2441 21.2226 56.3694 21.6902 57.1996 22.5204C58.0298 23.3506 58.4974 24.4759 58.5 25.65V25.65ZM9.93 18.22C8.7559 18.2174 7.63065 17.7498 6.80043 16.9196C5.97022 16.0894 5.50264 14.9641 5.5 13.79V9.93C5.50264 8.7559 5.97022 7.63065 6.80043 6.80043C7.63065 5.97022 8.7559 5.50264 9.93 5.5H54.07C55.2441 5.50264 56.3694 5.97022 57.1996 6.80043C58.0298 7.63065 58.4974 8.7559 58.5 9.93V13.79C58.4974 14.9641 58.0298 16.0894 57.1996 16.9196C56.3694 17.7498 55.2441 18.2174 54.07 18.22H9.93Z" fill="black"/>
<path d="M52 10.36H29.73C29.3322 10.36 28.9506 10.518 28.6693 10.7993C28.388 11.0806 28.23 11.4622 28.23 11.86C28.23 12.2578 28.388 12.6393 28.6693 12.9206C28.9506 13.202 29.3322 13.36 29.73 13.36H52C52.3978 13.36 52.7793 13.202 53.0606 12.9206C53.3419 12.6393 53.5 12.2578 53.5 11.86C53.5 11.4622 53.3419 11.0806 53.0606 10.7993C52.7793 10.518 52.3978 10.36 52 10.36Z" fill="black"/>
<path d="M14.75 7.60999C13.6228 7.60999 12.5418 8.05775 11.7448 8.85478C10.9478 9.65181 10.5 10.7328 10.5 11.86C10.5 12.9872 10.9478 14.0682 11.7448 14.8652C12.5418 15.6622 13.6228 16.11 14.75 16.11C15.8772 16.11 16.9582 15.6622 17.7552 14.8652C18.5522 14.0682 19 12.9872 19 11.86C19 10.7328 18.5522 9.65181 17.7552 8.85478C16.9582 8.05775 15.8772 7.60999 14.75 7.60999V7.60999ZM14.75 13.11C14.4185 13.11 14.1005 12.9783 13.8661 12.7439C13.6317 12.5094 13.5 12.1915 13.5 11.86C13.5 11.5285 13.6317 11.2105 13.8661 10.9761C14.1005 10.7417 14.4185 10.61 14.75 10.61C15.0815 10.61 15.3995 10.7417 15.6339 10.9761C15.8683 11.2105 16 11.5285 16 11.86C16 12.1915 15.8683 12.5094 15.6339 12.7439C15.3995 12.9783 15.0815 13.11 14.75 13.11Z" fill="black"/>
</svg>
