<svg version="1.1" xmlns="http://www.w3.org/2000/svg" xmlns:xlink="http://www.w3.org/1999/xlink" x="0px" y="0px" viewBox="0 0 50 50" style="enable-background:new 0 0 50 50;" xml:space="preserve">
<g id="Layer_1">
<path d="M1,14h3v2H1v14h3v2H1v14h3v4h42v-4h3V32h-3v-2h3V16h-3v-2h3V0H1V14z M44,48H6v-2h38V48z M47,34v10h-1H4H3V34h1h42H47z
		 M44,32H6v-2h38V32z M47,18v10h-1H4H3V18h1h42H47z M44,16H6v-2h38V16z M3,2h44v10h-1H4H3V2z" id="id_101" style="fill: rgb(255, 255, 255);"></path>
<rect x="6" y="5" width="2" height="4" id="id_102" style="fill: rgb(255, 255, 255);"></rect>
<rect x="11" y="5" width="2" height="4" id="id_103" style="fill: rgb(255, 255, 255);"></rect>
<rect x="16" y="5" width="2" height="4" id="id_104" style="fill: rgb(255, 255, 255);"></rect>
<rect x="21" y="5" width="2" height="4" id="id_105" style="fill: rgb(255, 255, 255);"></rect>
<rect x="42" y="6" width="2" height="2" id="id_106" style="fill: rgb(255, 255, 255);"></rect>
<rect x="26" y="6" width="13" height="2" id="id_107" style="fill: rgb(255, 255, 255);"></rect>
<rect x="6" y="21" width="2" height="4" id="id_108" style="fill: rgb(255, 255, 255);"></rect>
<rect x="11" y="21" width="2" height="4" id="id_109" style="fill: rgb(255, 255, 255);"></rect>
<rect x="16" y="21" width="2" height="4" id="id_110" style="fill: rgb(255, 255, 255);"></rect>
<rect x="21" y="21" width="2" height="4" id="id_111" style="fill: rgb(255, 255, 255);"></rect>
<rect x="42" y="22" width="2" height="2" id="id_112" style="fill: rgb(255, 255, 255);"></rect>
<rect x="26" y="22" width="13" height="2" id="id_113" style="fill: rgb(255, 255, 255);"></rect>
<rect x="6" y="37" width="2" height="4" id="id_114" style="fill: rgb(255, 255, 255);"></rect>
<rect x="11" y="37" width="2" height="4" id="id_115" style="fill: rgb(255, 255, 255);"></rect>
<rect x="16" y="37" width="2" height="4" id="id_116" style="fill: rgb(255, 255, 255);"></rect>
<rect x="21" y="37" width="2" height="4" id="id_117" style="fill: rgb(255, 255, 255);"></rect>
<rect x="42" y="38" width="2" height="2" id="id_118" style="fill: rgb(255, 255, 255);"></rect>
<rect x="26" y="38" width="13" height="2" id="id_119" style="fill: rgb(255, 255, 255);"></rect>
</g>
<g>
</g>
</svg>