<svg id="Layer_1" data-name="Layer 1" xmlns="http://www.w3.org/2000/svg" viewBox="0 0 512 512"><title>Customer Service Female</title><path d="M489.542,475.229l-34.516-69.036a116.6,116.6,0,0,0-75.944-61.205,130.761,130.761,0,0,0,23.126-17.446,10.664,10.664,0,0,0,1.333-13.458c-.158-.239-13.115-19.914-17.836-42.631a42.464,42.464,0,0,0,5.035-8.538A42.7,42.7,0,0,0,416,224V202.667a42.714,42.714,0,0,0-26.667-39.525V144c0-73.521-59.812-133.333-133.333-133.333S122.667,70.479,122.667,144v19.141A42.714,42.714,0,0,0,96,202.667V224a42.707,42.707,0,0,0,31.344,41.093c-3.309,25.175-18.718,48.734-18.885,48.99a10.664,10.664,0,0,0,1.333,13.458,130.761,130.761,0,0,0,23.126,17.446,116.6,116.6,0,0,0-75.944,61.205L22.458,475.229A10.668,10.668,0,0,0,32,490.667H480a10.668,10.668,0,0,0,9.542-15.437ZM170.667,180.948c23.026-1.385,77.906-7.729,115-36.693,9.318,12.818,27.708,32.24,55.667,36.313v54.1a84.8,84.8,0,0,1-6.283,32H317.74a26.684,26.684,0,0,0-24.406-16H272A26.667,26.667,0,1,0,272,304h21.333a26.684,26.684,0,0,0,24.406-16h4.768a85.262,85.262,0,0,1-151.84-53.333Zm128,96.385a5.337,5.337,0,0,1-5.333,5.333H272A5.333,5.333,0,0,1,272,272h21.333A5.337,5.337,0,0,1,298.667,277.333Zm-42.667,64a105.971,105.971,0,0,0,42.667-8.968v22.864a31.788,31.788,0,0,1-9.255,22.505L256,411.5l-33.411-33.766a31.788,31.788,0,0,1-9.255-22.505V332.366A105.971,105.971,0,0,0,256,341.333Zm-62.953,66.708,8.438-22.5a53.807,53.807,0,0,0,5.937,7.207l25.755,26.027-28.823,3.6a10.665,10.665,0,0,1-11.307-14.333Zm111.531-15.3a53.874,53.874,0,0,0,5.939-7.21l8.441,22.507a10.67,10.67,0,0,1-11.312,14.333l-28.823-3.6ZM320,341.333V320c0-.064-.018-.124-.019-.188A107.312,107.312,0,0,0,348.234,288H352a42.351,42.351,0,0,0,15.2-2.927A164.652,164.652,0,0,0,380.943,317.8C370.443,326.151,347.557,341.333,320,341.333ZM394.667,224a21.356,21.356,0,0,1-21.333,21.333H362.126c.35-3.51.54-7.066.54-10.667V181.333h10.667a21.356,21.356,0,0,1,21.333,21.333ZM256,32A112.127,112.127,0,0,1,368,144v16H352c-35.375,0-54.286-36.432-54.458-36.771a10.667,10.667,0,0,0-17.083-2.771C241.474,159.443,160.8,160,159.995,160H144V144A112.127,112.127,0,0,1,256,32ZM117.333,224V202.667a21.356,21.356,0,0,1,21.333-21.333h10.667v53.333c0,3.6.19,7.157.54,10.667H138.667A21.356,21.356,0,0,1,117.333,224Zm31.292,42.667h5.627a106.953,106.953,0,0,0,37.766,53.146c0,.064-.019.123-.019.188v21.333c-27.385,0-50.38-15.214-60.932-23.557C136.892,307.252,146.1,287.779,148.626,266.667ZM49.26,469.333l26.8-53.6a95.481,95.481,0,0,1,85.865-53.068h25.353l-14.2,37.885A32,32,0,0,0,207,443.542l38.333-4.792v30.583Zm217.406,0V438.75L305,443.542a32.413,32.413,0,0,0,4.063.255,32.01,32.01,0,0,0,29.87-43.245l-14.206-37.885h25.352a95.481,95.481,0,0,1,85.865,53.068l26.8,53.6Z" id="id_101" style="fill: rgb(255, 255, 255);"></path></svg>